<?xml version="1.0" encoding="UTF-8" standalone="no"?>
<svg
   id="Layer_1"
   data-name="Layer 1"
   width="512"
   height="512"
   viewBox="0 0 24 24"
   version="1.1"
   sodipodi:docname="construction-automobile.svg"
   inkscape:version="1.2.1 (9c6d41e410, 2022-07-14)"
   xmlns:inkscape="http://www.inkscape.org/namespaces/inkscape"
   xmlns:sodipodi="http://sodipodi.sourceforge.net/DTD/sodipodi-0.dtd"
   xmlns="http://www.w3.org/2000/svg"
   xmlns:svg="http://www.w3.org/2000/svg">
  <defs
     id="defs7" />
  <sodipodi:namedview
     id="namedview5"
     pagecolor="#ffffff"
     bordercolor="#000000"
     borderopacity="0.25"
     inkscape:showpageshadow="2"
     inkscape:pageopacity="0.0"
     inkscape:pagecheckerboard="0"
     inkscape:deskcolor="#d1d1d1"
     showgrid="false"
     inkscape:zoom="1.6347656"
     inkscape:cx="235.81362"
     inkscape:cy="207.36918"
     inkscape:window-width="1920"
     inkscape:window-height="1017"
     inkscape:window-x="-8"
     inkscape:window-y="-8"
     inkscape:window-maximized="1"
     inkscape:current-layer="Layer_1" />
  <path
     d="M24,19.232c0-1.207-.206-2.395-.612-3.531l-1.443-4.042c-.354-.993-1.3-1.659-2.354-1.659h-6.182c-1.054,0-1.999,.667-2.354,1.659l-1.443,4.041c-.406,1.137-.612,2.325-.612,3.532v2.768h2v2h3v-2h5v2h3v-2h2v-2.768Zm-12.003-7.237c.213-.595,.78-.995,1.412-.995h6.182c.632,0,1.199,.4,1.412,.995l1.43,4.005H10.567l1.43-4.005Zm1.003,11.005h-1v-1h1v1Zm8,0h-1v-1h1v1Zm2-2H10v-1.768c0-.755,.089-1.502,.266-2.232h2.734v1.5c0,.276,.224,.5,.5,.5s.5-.224,.5-.5v-1.5h5v1.5c0,.276,.224,.5,.5,.5s.5-.224,.5-.5v-1.5h2.734c.177,.729,.266,1.477,.266,2.232v1.768ZM13.5,1H2.5c-.827,0-1.5,.673-1.5,1.5V24H0V2.5C0,1.122,1.121,0,2.5,0H13.5c1.379,0,2.5,1.122,2.5,2.5v5.5h-1V2.5c0-.827-.673-1.5-1.5-1.5ZM4,7h3v-3h-3v3Zm1-2h1v1h-1v-1Zm-1,7h3v-3h-3v3Zm1-2h1v1h-1v-1Zm-1,7h3v-3h-3v3Zm1-2h1v1h-1v-1Zm-1,7h3v-3h-3v3Zm1-2h1v1h-1v-1ZM12,7v-3h-3v3h3Zm-2-2h1v1h-1v-1Z"
     id="path2" />
  <path
     style="fill:#f0eff3;stroke:#ffffff;stroke-width:1.83513;stroke-linecap:round;paint-order:markers fill stroke"
     d="m 85.639188,224.19116 v -31.80884 h 31.808842 31.80884 V 224.19116 256 H 117.44803 85.639188 Z m 42.819592,0 v -11.01075 h -11.01075 -11.01075 v 11.01075 11.01075 h 11.01075 11.01075 z"
     id="path251"
     transform="scale(0.046875)" />
  <path
     style="fill:#f0eff3;stroke:#ffffff;stroke-width:1.83513;stroke-linecap:round;paint-order:markers fill stroke"
     d="M 85.639188,117.14217 V 85.333333 h 31.808842 31.80884 v 31.808837 31.80885 H 117.44803 85.639188 Z m 42.819592,0 v -11.01075 h -11.01075 -11.01075 v 11.01075 11.01076 h 11.01075 11.01075 z"
     id="path253"
     transform="scale(0.046875)" />
  <path
     style="fill:#f0eff3;stroke:#ffffff;stroke-width:1.83513;stroke-linecap:round;paint-order:markers fill stroke"
     d="M 192.07646,117.14217 V 85.333333 h 31.80884 31.80885 v 31.808837 31.80885 H 223.8853 192.07646 Z m 42.8196,0 V 106.13142 H 223.8853 212.87455 v 11.01075 11.01076 h 11.01075 11.01076 z"
     id="path255"
     transform="scale(0.046875)" />
  <path
     style="fill:#f0eff3;stroke:#ffffff;stroke-width:1.83513;stroke-linecap:round;paint-order:markers fill stroke"
     d="M 0.16058816,279.092 C 0.32520625,65.500178 0.4222264,46.15774 1.3476849,42.42635 6.331296,22.332748 20.364876,7.6875106 40.066906,2.0195411 L 44.960573,0.61170848 H 170.66667 296.37276 l 4.89367,1.39894092 c 14.77283,4.2230748 26.85069,13.9239086 33.54727,26.9448846 3.67332,7.142491 5.18875,12.406421 5.90683,20.51776 0.34185,3.861438 0.6046,31.472524 0.60757,63.845706 l 0.005,57.04181 h -10.37681 -10.3768 l -0.18665,-61.32377 c -0.20575,-67.604352 0.0447,-63.139013 -3.98843,-71.111114 -2.10147,-4.153884 -9.41201,-11.316141 -13.60894,-13.332903 -7.72204,-3.710692 0.67025,-3.48908 -132.12903,-3.48908 -132.799283,0 -124.406996,-0.221612 -132.129036,3.48908 -4.19693,2.016762 -11.507471,9.179019 -13.608941,13.332903 -0.851032,1.682198 -2.05975,4.572521 -2.68604,6.422939 -1.101433,3.25426 -1.143923,10.958813 -1.29793,235.354835 l -0.15922,231.99045 H 10.383411 -0.01868139 Z"
     id="path257"
     transform="scale(0.046875)" />
  <path
     style="fill:#f0eff3;stroke:#ffffff;stroke-width:1.83513;stroke-linecap:round;paint-order:markers fill stroke"
     d="m 234.89606,490.28435 v -21.4098 h -21.4098 -21.4098 l 0.005,-30.12664 c 0.007,-41.08842 0.86293,-53.79782 4.9622,-73.72208 2.88541,-14.02432 5.11338,-20.88783 23.40037,-72.0874 19.17525,-53.6865 19.63065,-54.72412 27.60329,-62.89364 8.23689,-8.4403 17.90612,-13.58788 29.32143,-15.60978 2.39879,-0.42488 27.73999,-0.6429 74.72755,-0.6429 77.74659,0 75.404,-0.0995 85.02441,3.61055 12.67258,4.88706 24.18539,15.96109 29.31559,28.1983 2.15809,5.14774 33.96341,94.39342 35.64304,100.01433 8.08766,27.06533 9.89651,44.67502 9.91213,96.49702 L 512,468.87455 h -21.4098 -21.40979 v 21.4098 21.4098 h -31.80884 -31.80885 v -21.4098 -21.4098 h -53.52449 -53.52449 v 21.4098 21.4098 H 266.7049 234.89606 Z M 277.71565,479.8853 V 468.87455 H 266.7049 255.69415 v 11.01075 11.01076 h 11.01075 11.01075 z m 170.66667,0 v -11.01075 h -11.01075 -11.01076 v 11.01075 11.01076 h 11.01076 11.01075 z m 42.64781,-57.95937 c -0.35988,-28.11748 -0.97866,-35.99574 -4.01274,-51.09006 l -1.62671,-8.09274 -29.51493,-0.1588 -29.51494,-0.1588 -0.0135,16.98078 c -0.012,15.20631 -0.13184,17.2415 -1.14656,19.4757 -3.67763,8.09732 -14.80047,8.09732 -18.47809,0 -1.01469,-2.23413 -1.13454,-4.26923 -1.14657,-19.46982 l -0.0134,-16.97491 h -53.49004 -53.49004 l -0.18738,17.58661 c -0.18246,17.12586 -0.22424,17.64592 -1.59456,19.84969 -3.98337,6.40621 -12.44282,6.74925 -17.06538,0.69201 l -1.71381,-2.24573 -0.17903,-17.94129 -0.17903,-17.94129 h -29.54067 -29.54066 l -1.61142,8.41099 c -3.36735,17.57628 -4.07454,27.3139 -4.08708,56.27718 l -0.009,20.95101 H 352.1197 491.36485 Z m -12.23442,-81.07615 c -0.16661,-0.43418 -7.19468,-20.08412 -15.61793,-43.66655 -8.42325,-23.58242 -16.06114,-44.35407 -16.9731,-46.15921 -3.42198,-6.77354 -12.02858,-13.43843 -20.14972,-15.60379 -4.69067,-1.25069 -143.54621,-1.19577 -148.2592,0.0586 -8.39452,2.23428 -16.02107,8.18785 -19.82104,15.47307 -1.61315,3.09266 -32.866,89.09348 -32.866,90.43981 0,0.13609 57.14773,0.24744 126.99496,0.24744 103.47038,0 126.93884,-0.14623 126.69203,-0.78941 z"
     id="path259"
     transform="scale(0.046875)" />
  <path
     style="fill:#f0eff3;stroke:#ffffff;stroke-width:1.83513;stroke-linecap:round;paint-order:markers fill stroke"
     d="m 85.639188,330.62843 v -31.80884 h 31.808842 31.80884 v 31.80884 31.80885 H 117.44803 85.639188 Z m 42.819592,0 v -11.01075 h -11.01075 -11.01075 v 11.01075 11.01076 h 11.01075 11.01075 z"
     id="path261"
     transform="scale(0.046875)" />
  <path
     style="fill:#f0eff3;stroke:#ffffff;stroke-width:1.83513;stroke-linecap:round;paint-order:markers fill stroke"
     d="m 85.639188,437.37157 v -31.50299 h 31.808842 31.80884 v 31.50299 31.50298 H 117.44803 85.639188 Z m 42.819592,0 v -10.7049 h -11.01075 -11.01075 v 10.7049 10.70489 h 11.01075 11.01075 z"
     id="path263"
     transform="scale(0.046875)" />
</svg>
