<?xml version="1.0" encoding="UTF-8" standalone="no"?>
<svg
   id="Layer_1"
   data-name="Layer 1"
   viewBox="0 0 24 24"
   version="1.1"
   sodipodi:docname="former.svg"
   inkscape:version="1.2.1 (9c6d41e410, 2022-07-14)"
   xmlns:inkscape="http://www.inkscape.org/namespaces/inkscape"
   xmlns:sodipodi="http://sodipodi.sourceforge.net/DTD/sodipodi-0.dtd"
   xmlns="http://www.w3.org/2000/svg"
   xmlns:svg="http://www.w3.org/2000/svg">
  <defs
     id="defs13" />
  <sodipodi:namedview
     id="namedview11"
     pagecolor="#ffffff"
     bordercolor="#000000"
     borderopacity="0.25"
     inkscape:showpageshadow="2"
     inkscape:pageopacity="0.0"
     inkscape:pagecheckerboard="0"
     inkscape:deskcolor="#d1d1d1"
     showgrid="false"
     inkscape:zoom="34.875"
     inkscape:cx="11.02509"
     inkscape:cy="12.014337"
     inkscape:window-width="1920"
     inkscape:window-height="1017"
     inkscape:window-x="-8"
     inkscape:window-y="-8"
     inkscape:window-maximized="1"
     inkscape:current-layer="Layer_1" />
  <g
     id="g6">
    <path
       d="M21.32,22.295c-.924-2.058-2.366-3.546-3.592-4.528,.364-.173,.558-.302,.583-.319,.101-.069,.173-.172,.203-.291,.033-.128,.8-3.184,.8-7.274,0-4.136-.773-6.707-.806-6.814-.036-.116-.112-.216-.216-.279-.119-.073-2.942-1.789-6.293-1.789s-6.173,1.716-6.292,1.789c-.104,.063-.182,.164-.217,.281-.033,.108-.806,2.712-.806,6.812,0,4.125,.768,7.149,.8,7.276,.031,.119,.104,.223,.208,.291,.025,.017,.219,.143,.581,.314-1.227,.981-2.67,2.471-3.594,4.531-.113,.252,0,.548,.251,.661,.066,.03,.137,.044,.205,.044,.19,0,.373-.109,.456-.295,.964-2.148,2.555-3.627,3.768-4.512,1.051,.347,2.598,.684,4.641,.684,2.055,0,3.598-.335,4.645-.68,1.211,.885,2.8,2.364,3.763,4.508,.083,.186,.266,.295,.456,.295,.068,0,.139-.014,.205-.044,.252-.113,.364-.409,.251-.661ZM12,2c2.626,0,4.973,1.196,5.604,1.546,.112,.425,.381,1.564,.554,3.24-.422,.742-2.807,4.65-6.169,4.65-3.293,0-5.709-3.895-6.144-4.648,.174-1.669,.442-2.815,.554-3.242,.631-.35,2.976-1.545,5.603-1.545Zm-5.594,14.71c-.167-.735-.721-3.423-.721-6.827,0-.506,.013-.989,.034-1.448,1.13,1.573,3.347,4,6.268,4,2.959,0,5.168-2.417,6.293-3.991,.021,.455,.033,.935,.033,1.438,0,3.382-.556,6.092-.722,6.829-.531,.291-2.391,1.165-5.593,1.165-3.17,0-5.054-.876-5.594-1.167Z"
       id="path2" />
    <path
       d="M10.178,5.787h3.645c.276,0,.5-.224,.5-.5s-.224-.5-.5-.5h-3.645c-.276,0-.5,.224-.5,.5s.224,.5,.5,.5Z"
       id="path4" />
  </g>
  <circle
     cx="12.001"
     cy="14.975"
     r=".745"
     id="circle8" />
  <path
     style="fill:#f0eff3;stroke:#ffffff;stroke-width:0.0860215;stroke-linecap:round;paint-order:markers fill stroke"
     d="m 2.9311154,22.934454 c -0.1875316,-0.09243 -0.3186851,-0.33895 -0.2753816,-0.517609 0.010655,-0.04396 0.1134753,-0.268546 0.2284894,-0.49908 0.7197893,-1.442741 1.7412822,-2.731118 3.0526809,-3.85025 0.1805809,-0.154105 0.3317087,-0.289253 0.3358397,-0.300328 0.00413,-0.01108 -0.066837,-0.0564 -0.1577061,-0.100727 C 5.8179567,17.521549 5.6245161,17.390304 5.5642214,17.292745 5.4490097,17.106329 5.1323022,15.44761 4.977951,14.222222 4.8072875,12.867331 4.7351758,11.824744 4.7121946,10.379928 4.6746703,8.0207842 4.8800608,5.7805273 5.3102616,3.8566308 5.4734838,3.1266865 5.5195068,2.9962164 5.6592169,2.8673835 5.7276356,2.8042918 5.9758007,2.6536934 6.2107943,2.5326603 7.6742538,1.7789079 9.1503739,1.3078728 10.709677,1.0970508 c 0.375353,-0.050749 0.604782,-0.06228 1.261649,-0.063411 0.81649,-0.00141 1.070769,0.017523 1.763441,0.1312705 1.32817,0.2181064 2.750763,0.6959787 4.014337,1.3484822 0.657385,0.3394705 0.69479,0.3756472 0.802984,0.776619 0.281028,1.0415044 0.520419,2.5411677 0.644291,4.036153 0.107585,1.2984169 0.127029,3.3103235 0.04406,4.5591405 -0.108893,1.639065 -0.336238,3.389118 -0.605301,4.659498 -0.170112,0.803182 -0.184624,0.827209 -0.642638,1.064003 -0.149253,0.07716 -0.271526,0.147763 -0.27172,0.156888 -2e-4,0.0091 0.14481,0.138096 0.32223,0.286604 0.42973,0.359701 1.202864,1.134597 1.557057,1.560605 0.604697,0.727303 1.084487,1.453006 1.480832,2.239822 0.282667,0.561146 0.31067,0.675498 0.212099,0.866113 -0.121332,0.234631 -0.436542,0.329604 -0.662175,0.199513 -0.102072,-0.05885 -0.143959,-0.122775 -0.380607,-0.580851 -0.41068,-0.794949 -0.776243,-1.354549 -1.320942,-2.022088 -0.300882,-0.368735 -0.947046,-1.032688 -1.352214,-1.389441 -0.378086,-0.332905 -0.890126,-0.732423 -0.938708,-0.732423 -0.02027,0 -0.181864,0.0436 -0.359106,0.0969 -1.355362,0.407543 -2.831035,0.585064 -4.604865,0.553957 -1.593083,-0.02794 -2.7539224,-0.197352 -4.0839797,-0.596024 -0.2662991,-0.07982 -0.2099943,-0.103915 -0.7467722,0.319573 -0.4617474,0.364293 -1.5178423,1.412347 -1.8510643,1.836971 -0.5438846,0.69307 -0.840341,1.153342 -1.2349069,1.917291 -0.2458665,0.476042 -0.2854848,0.536671 -0.3884833,0.594511 -0.1356172,0.07616 -0.3055614,0.08303 -0.4380602,0.01773 z M 13.175627,17.848173 c 1.607104,-0.119023 2.993781,-0.449659 4.175271,-0.995543 l 0.246955,-0.114101 0.04781,-0.211558 c 0.304758,-1.348546 0.559325,-3.403951 0.647686,-5.22948 0.04849,-1.001915 0.03205,-2.8552628 -0.0253,-2.8521015 -0.0094,5.19e-4 -0.09457,0.1068706 -0.189191,0.2363352 C 17.56332,9.387085 16.65157,10.350141 16.03967,10.835662 14.60265,11.975886 13.060186,12.522278 11.615762,12.402758 10.163601,12.282598 8.8370062,11.640783 7.4551971,10.389852 6.9866581,9.9656915 6.3498044,9.2540542 5.9207386,8.6752077 L 5.7204301,8.4049746 5.6973164,8.6756054 c -0.035667,0.4176141 -0.00206,2.7375286 0.049811,3.4390896 0.1079524,1.459905 0.2737939,2.734709 0.5197815,3.995501 0.055868,0.286346 0.1086157,0.544369 0.1172173,0.573385 0.018342,0.06187 0.3514205,0.222588 0.8703538,0.41996 0.9580267,0.364378 2.12351,0.619775 3.268817,0.71631 0.197133,0.01662 0.403585,0.03446 0.458782,0.03966 0.25038,0.02357 1.832593,0.01539 2.193548,-0.01134 z M 12.743815,11.38351 c 0.783684,-0.138198 1.558293,-0.479858 2.313361,-1.020362 C 16.051719,9.6512201 17.115057,8.4865158 17.882204,7.2688172 18.209839,6.7487604 18.180481,6.8459905 18.133284,6.437276 18.033228,5.5708141 17.87638,4.6403346 17.701841,3.8777973 L 17.624645,3.5405407 17.392968,3.4148908 C 16.215149,2.776102 14.619372,2.2619098 13.189964,2.060596 12.736251,1.9966963 11.409741,1.9875602 10.953405,2.0451921 9.7728803,2.1942837 8.6632201,2.4993478 7.4929092,2.99654 7.0516677,3.1839961 6.3990179,3.5161486 6.3813239,3.5622581 6.2680361,3.8574819 5.9712536,5.5469537 5.8536152,6.5663082 l -0.026473,0.2293907 0.195214,0.3154122 c 0.5684734,0.9184955 1.3918068,1.9258435 2.1004771,2.5699326 1.1561013,1.0507453 2.2530217,1.6113663 3.4183857,1.7470913 0.278398,0.03242 0.895536,0.0095 1.202596,-0.04462 z"
     id="path865" />
  <path
     style="fill:#f0eff3;stroke:#ffffff;stroke-width:0.0860215;stroke-linecap:round;paint-order:markers fill stroke"
     d="m 11.767388,15.660901 c -0.285626,-0.107732 -0.493771,-0.39271 -0.497312,-0.680883 -0.0036,-0.293649 0.233551,-0.614249 0.516552,-0.698291 0.187969,-0.05582 0.237651,-0.05616 0.417305,-0.0028 0.172987,0.05137 0.363828,0.208603 0.448264,0.369318 0.08442,0.160677 0.08854,0.472045 0.0084,0.63368 -0.162054,0.326804 -0.571233,0.500417 -0.893195,0.378979 z"
     id="path867" />
  <path
     style="fill:#f0eff3;stroke:#ffffff;stroke-width:0.0860215;stroke-linecap:round;paint-order:markers fill stroke"
     d="M 9.9895029,5.7229214 C 9.6869345,5.5855195 9.6019234,5.226573 9.8145864,4.9843631 9.9799822,4.7959878 9.8971437,4.8028674 12,4.8028674 c 2.102856,0 2.020018,-0.00688 2.185414,0.1814957 0.212663,0.2422099 0.127652,0.6011564 -0.174917,0.7385583 -0.111453,0.050613 -0.22338,0.053597 -2.010497,0.053597 -1.787117,0 -1.899044,-0.00298 -2.0104971,-0.053597 z"
     id="path869" />
</svg>
