<?xml version="1.0" encoding="UTF-8" standalone="no"?>
<svg
   id="Layer_1"
   data-name="Layer 1"
   width="512"
   height="512"
   viewBox="0 0 24 24"
   version="1.1"
   sodipodi:docname="avion-alt.svg"
   inkscape:version="1.2.1 (9c6d41e410, 2022-07-14)"
   xmlns:inkscape="http://www.inkscape.org/namespaces/inkscape"
   xmlns:sodipodi="http://sodipodi.sourceforge.net/DTD/sodipodi-0.dtd"
   xmlns="http://www.w3.org/2000/svg"
   xmlns:svg="http://www.w3.org/2000/svg">
  <defs
     id="defs7" />
  <sodipodi:namedview
     id="namedview5"
     pagecolor="#ffffff"
     bordercolor="#000000"
     borderopacity="0.25"
     inkscape:showpageshadow="2"
     inkscape:pageopacity="0.0"
     inkscape:pagecheckerboard="0"
     inkscape:deskcolor="#d1d1d1"
     showgrid="false"
     inkscape:zoom="1.6347656"
     inkscape:cx="235.81362"
     inkscape:cy="256.30585"
     inkscape:window-width="1920"
     inkscape:window-height="1017"
     inkscape:window-x="-8"
     inkscape:window-y="-8"
     inkscape:window-maximized="1"
     inkscape:current-layer="Layer_1" />
  <path
     d="M10.967,24h-3.548l3.039-9H6.038l-1.232,1.879c-.465,.703-1.244,1.121-2.085,1.121H.102l1.997-6L.087,6H2.708c.841,0,1.62,.418,2.084,1.12l1.245,1.88h4.421L7.419,0h3.548c.915,0,1.756,.5,2.194,1.303l4.287,7.697h3.418c1.531,0,2.861,1.075,3.093,2.5,.144,.881-.102,1.771-.673,2.443s-1.404,1.057-2.286,1.057h-3.552l-4.289,7.701c-.437,.8-1.277,1.299-2.192,1.299Zm-2.155-1h2.155c.549,0,1.054-.3,1.317-.782l4.576-8.218h4.14c.588,0,1.144-.257,1.524-.705,.387-.455,.546-1.035,.448-1.635-.154-.946-1.06-1.66-2.106-1.66h-4.006L12.286,1.786c-.266-.486-.771-.786-1.319-.786h-2.155l3.039,9H5.5l-1.542-2.329c-.278-.42-.745-.671-1.25-.671H1.478l1.676,5-1.665,5h1.232c.504,0,.972-.251,1.25-.671l1.528-2.329h6.352l-3.039,9Z"
     id="path2" />
  <path
     style="fill:#f0eff3;stroke:#ffffff;stroke-width:1.83513;stroke-linecap:round;paint-order:markers fill stroke"
     d="m 159.65652,510.3178 c 3.4e-4,-0.75699 14.31431,-43.74828 31.80884,-95.5362 17.49453,-51.78793 31.80824,-94.38578 31.80824,-94.66189 0,-0.27612 -21.30541,-0.50203 -47.34536,-0.50203 h -47.34536 l -13.51419,20.64516 c -7.43281,11.35484 -14.74425,22.20869 -16.24765,24.11965 -7.628689,9.6968 -20.885318,16.99296 -34.177131,18.81034 -7.228003,0.98827 -61.5853666,0.88791 -61.5853666,-0.11371 0,-0.42238 9.4748766,-29.18961 21.0552826,-63.92718 L 45.169107,255.99273 24.113825,193.24783 C 12.533419,158.73814 3.0585424,129.95624 3.0585424,129.28806 c 0,-1.19914 0.4058231,-1.21196 31.3500596,-0.98997 30.104988,0.21595 31.544412,0.27866 36.243728,1.57886 9.828467,2.71932 18.305963,7.7368 25.133046,14.87519 2.254054,2.35684 9.474354,12.52236 18.297784,25.7616 l 14.57453,21.86858 h 47.30796 c 26.01937,0 47.30795,-0.23228 47.30795,-0.51617 0,-0.2839 -14.31346,-42.88175 -31.80768,-94.661892 C 173.9717,45.424113 159.65772,2.4266489 159.65708,1.6543346 l -0.001,-1.40420774 41.44325,0.19904939 c 40.21601,0.19315497 41.58137,0.23794427 46.10736,1.51250835 10.81671,3.0460955 21.04688,9.6794174 27.56687,17.8745674 2.78966,3.506405 16.04188,26.763589 50.42739,88.498288 l 46.64328,83.74192 42.0923,0.32554 42.09231,0.32554 6.11709,1.67536 c 19.64201,5.37959 36.06959,18.82754 44.02038,36.03599 4.02184,8.70473 4.92057,13.46611 4.88249,25.86696 -0.0313,10.18424 -0.15911,11.42401 -1.70299,16.51613 -6.85911,22.62321 -23.17153,38.71788 -45.40842,44.80228 l -6.07342,1.6618 -43.01078,0.31874 -43.01079,0.31874 -46.15603,82.8865 c -25.38581,45.58757 -47.18364,84.38299 -48.43963,86.21205 -5.47451,7.97237 -14.3012,14.9602 -23.66778,18.73712 -9.40497,3.7924 -11.39204,3.93494 -54.85366,3.93494 h -39.06922 z m 82.14989,-20.33263 c 5.87557,-1.53039 10.7993,-4.41259 15.11115,-8.84557 3.7335,-3.83838 6.99938,-9.52421 53.52449,-93.18498 l 49.54839,-89.09717 48.32497,-0.17186 48.32497,-0.17185 5.13909,-1.79381 c 19.33781,-6.74992 31.30501,-25.8472 28.80484,-45.96684 -1.72884,-13.9126 -10.30699,-25.76879 -23.36083,-32.28791 -10.44905,-5.21829 -7.01931,-4.92514 -60.13148,-5.13957 L 359.99044,213.13545 310.44205,124.0439 C 263.9326,40.41658 260.6498,34.701517 256.91756,30.862477 c -2.49264,-2.563975 -5.40093,-4.807505 -7.79506,-6.01332 -7.20383,-3.628248 -8.33035,-3.745214 -36.07061,-3.745214 -13.89156,0 -25.25739,0.16265 -25.25739,0.361444 0,0.198794 14.45162,43.164098 32.1147,95.478443 17.66308,52.31436 32.11469,95.36891 32.11469,95.6768 0,0.33517 -26.95576,0.55978 -67.18051,0.55978 h -67.18051 l -16.89241,-25.53883 c -9.290821,-14.04636 -17.854843,-26.66305 -19.031165,-28.03709 -2.90367,-3.39174 -7.929149,-6.74986 -12.995954,-8.68413 -4.101891,-1.56592 -4.63094,-1.61235 -20.962523,-1.83983 -13.782038,-0.19196 -16.703452,-0.0885 -16.467102,0.5832 0.15803,0.4491 8.239492,24.58125 17.958806,53.627 l 17.671478,52.81044 -17.822028,53.47391 -17.822031,53.4739 14.782526,-0.0106 c 16.622102,-0.0119 20.561135,-0.55527 26.778112,-3.69359 6.989546,-3.52831 10.260211,-7.60471 28.316471,-35.29231 l 16.45543,-25.23285 h 67.19571 c 40.38013,0 67.1957,0.22407 67.1957,0.56146 0,0.30881 -14.45161,43.35477 -32.11469,95.6577 -17.66308,52.30293 -32.1147,95.26748 -32.1147,95.47677 0,0.2093 11.36583,0.38054 25.25739,0.38054 20.39528,0 25.93059,-0.17535 28.75452,-0.91089 z"
     id="path305"
     transform="scale(0.046875)" />
</svg>
