<?xml version="1.0" encoding="UTF-8" standalone="no"?>
<svg
   id="Layer_1"
   data-name="Layer 1"
   viewBox="0 0 24 24"
   version="1.1"
   sodipodi:docname="voiture.svg"
   inkscape:version="1.2.1 (9c6d41e410, 2022-07-14)"
   xmlns:inkscape="http://www.inkscape.org/namespaces/inkscape"
   xmlns:sodipodi="http://sodipodi.sourceforge.net/DTD/sodipodi-0.dtd"
   xmlns="http://www.w3.org/2000/svg"
   xmlns:svg="http://www.w3.org/2000/svg">
  <defs
     id="defs11" />
  <sodipodi:namedview
     id="namedview9"
     pagecolor="#ffffff"
     bordercolor="#000000"
     borderopacity="0.25"
     inkscape:showpageshadow="2"
     inkscape:pageopacity="0.0"
     inkscape:pagecheckerboard="0"
     inkscape:deskcolor="#d1d1d1"
     showgrid="false"
     inkscape:zoom="34.875"
     inkscape:cx="10.336918"
     inkscape:cy="12.014337"
     inkscape:window-width="1920"
     inkscape:window-height="1017"
     inkscape:window-x="-8"
     inkscape:window-y="-8"
     inkscape:window-maximized="1"
     inkscape:current-layer="Layer_1" />
  <path
     d="M22.796,12.888c-.031-.194-.174-.352-.364-.402-.037-.01-.232-.062-.562-.139,.045-.075,.071-.162,.071-.256,0-5.443-2-9.432-2.085-9.599-.054-.105-.143-.188-.252-.234-.123-.051-3.057-1.257-7.604-1.257s-7.479,1.206-7.603,1.257c-.11,.046-.201,.13-.254,.236-.085,.169-2.083,4.2-2.083,9.597,0,.094,.026,.182,.071,.257-.33,.077-.526,.129-.563,.139-.19,.051-.333,.209-.365,.404-.007,.046-.181,1.145-.181,2.609,0,1.478,.174,2.565,.181,2.61,.035,.211,.2,.377,.411,.413,.015,.002,.471,.078,1.255,.182v1.488c0,1.548,1.269,2.807,2.829,2.807s2.829-1.259,2.829-2.807v-.961c1.096,.06,2.267,.098,3.473,.098s2.376-.038,3.473-.098v.962c0,1.548,1.27,2.807,2.83,2.807s2.829-1.259,2.829-2.807v-1.489c.783-.104,1.239-.18,1.254-.182,.211-.036,.376-.202,.41-.414,.008-.046,.183-1.145,.183-2.61,0-1.477-.175-2.565-.183-2.61Zm-19.736-.798c0-4.546,1.525-8.165,1.896-8.977,.684-.249,3.325-1.114,7.044-1.114s6.365,.865,7.045,1.114c.371,.803,1.896,4.381,1.896,8.977,0,.018,0,.035,.003,.052-1.843-.382-5.196-.946-8.943-.946s-7.098,.564-8.943,.946c.002-.017,.003-.035,.003-.053Zm4.467,8.103c0,.997-.82,1.807-1.829,1.807s-1.829-.811-1.829-1.807v-1.363c.984,.116,2.239,.243,3.658,.34v1.023Zm12.605,0c0,.997-.82,1.807-1.829,1.807s-1.83-.811-1.83-1.807v-1.023c1.419-.097,2.674-.224,3.659-.341v1.364Zm1.725-2.601c-1.212,.182-5.293,.737-9.856,.737s-8.647-.555-9.857-.737c-.05-.422-.121-1.185-.121-2.094,0-.927,.075-1.709,.125-2.126,1.153-.276,5.254-1.175,9.853-1.175s8.702,.898,9.853,1.175c.051,.415,.126,1.193,.126,2.126,0,.903-.072,1.669-.122,2.094Z"
     id="path2" />
  <circle
     cx="7.8"
     cy="15.267"
     r=".745"
     id="circle4" />
  <circle
     cx="16.2"
     cy="15.267"
     r=".745"
     id="circle6" />
  <path
     style="fill:#f0eff3;stroke:#ffffff;stroke-width:0.0860215;stroke-linecap:round;paint-order:markers fill stroke;fill-opacity:1"
     d="M 5.1935619,22.939428 C 4.2908298,22.751335 3.5706808,22.208656 3.1763847,21.419355 2.9282573,20.922654 2.8817204,20.6264 2.8817204,19.543524 v -0.850398 l -0.647805,-0.09285 C 1.2399687,18.457817 1.2475669,18.465086 1.1494798,17.562724 1.0724966,16.854509 1.047156,16.345955 1.0473221,15.512545 c 1.747e-4,-0.876329 0.027666,-1.39737 0.1140029,-2.160666 0.082226,-0.726952 0.1329736,-0.794491 0.6922478,-0.921296 0.2708267,-0.06141 0.2860197,-0.06867 0.2635071,-0.126009 -0.03425,-0.08723 -0.02316,-1.330715 0.016397,-1.838624 C 2.3197404,8.0743639 2.8654945,5.6732958 3.7041851,3.5555556 4.0011708,2.8056508 4.1713135,2.4527781 4.2800034,2.3613217 4.514597,2.1639243 5.952324,1.7348315 7.2401434,1.4778616 8.6745692,1.1916379 9.9801741,1.0556485 11.569892,1.0268828 c 1.853587,-0.0335403 3.516728,0.1134668 5.266866,0.465545 1.224159,0.246266 2.656144,0.6778067 2.883227,0.8688843 0.212603,0.1788933 0.841624,1.7589354 1.24025,3.1153904 0.587448,1.9989807 0.931195,4.2061319 0.94227,6.0501795 0.0024,0.394265 -0.0062,0.743352 -0.01908,0.775748 -0.02175,0.05478 -0.0032,0.06367 0.265411,0.127077 0.526602,0.124314 0.599055,0.205923 0.67109,0.755901 0.102714,0.784206 0.119019,1.101008 0.119019,2.3126 0,1.211592 -0.01631,1.528394 -0.119019,2.312599 -0.08203,0.62626 -0.119089,0.654191 -1.047121,0.789129 l -0.64999,0.09451 -0.01203,0.961021 c -0.01091,0.871048 -0.01788,0.983553 -0.0745,1.201694 -0.449366,1.73125 -2.383175,2.624689 -3.972195,1.835194 C 16.495123,22.409669 16.044807,21.95679 15.76978,21.390681 15.541794,20.9214 15.5202,20.804547 15.50544,19.960288 l -0.01298,-0.742222 -0.420067,0.01949 c -2.125146,0.0986 -4.019774,0.09859 -6.1450912,-1.4e-5 l -0.4203644,-0.0195 -0.012071,0.727899 c -0.010412,0.62786 -0.020405,0.758236 -0.072708,0.948643 -0.073173,0.266383 -0.2200063,0.59123 -0.3693032,0.817031 -0.1480278,0.223881 -0.5002219,0.589558 -0.7166142,0.744047 -0.2317092,0.165424 -0.6558082,0.363895 -0.9419791,0.44083 -0.29954,0.08053 -0.9147148,0.102528 -1.2007033,0.04294 z M 6.1617353,21.950624 C 6.6101184,21.835947 6.9785915,21.575513 7.2351272,21.19196 7.4892728,20.811981 7.5072634,20.729028 7.5200605,19.878136 L 7.531165,19.139785 H 7.3984189 c -0.1910641,0 -1.7482727,-0.133382 -2.5382038,-0.217409 -0.3706094,-0.03942 -0.7480287,-0.07944 -0.8387097,-0.08892 l -0.1648746,-0.01725 4.989e-4,0.785447 c 5.621e-4,0.886318 0.02219,1.049795 0.1828778,1.38228 0.2279879,0.471739 0.7022248,0.854557 1.2112759,0.977777 0.2510079,0.06076 0.6484714,0.05592 0.9104531,-0.01108 z m 12.5740867,0.01236 c 0.517596,-0.122005 0.987931,-0.496388 1.223301,-0.973737 0.15992,-0.324333 0.183185,-0.4995 0.183748,-1.383512 l 4.98e-4,-0.781362 -0.06452,4.64e-4 c -0.03548,2.58e-4 -0.277419,0.02508 -0.537634,0.05517 -0.553398,0.06399 -1.903626,0.189114 -2.580646,0.23915 l -0.473118,0.03497 v 0.716846 c 0,0.678538 0.0036,0.727305 0.06758,0.91257 0.141218,0.409007 0.469216,0.791387 0.859546,1.002061 0.384291,0.207414 0.900073,0.276662 1.321243,0.177386 z m -4.74299,-3.655057 c 2.52101,-0.08869 5.078038,-0.311336 7.618905,-0.663381 0.296848,-0.04113 0.263028,0.03455 0.32489,-0.726983 0.0586,-0.721332 0.05842,-2.121017 -3.64e-4,-2.83871 -0.06522,-0.796276 -0.0268,-0.71101 -0.354424,-0.786598 C 21.011731,13.160724 20.078824,12.9746 19.426523,12.862249 15.708518,12.221867 12.442942,12.046048 9.0322581,12.302619 7.412123,12.424495 5.702548,12.649878 4.0143369,12.964158 3.3786438,13.0825 2.16354,13.341023 2.1406649,13.362797 c -0.00543,0.0052 -0.030348,0.200654 -0.055373,0.434412 -0.084166,0.786184 -0.058707,3.242741 0.038749,3.738946 0.016749,0.08528 -0.08125,0.06758 1.417178,0.25594 2.221139,0.279207 4.3748852,0.44687 6.7526881,0.525679 0.639847,0.02121 2.994443,0.01494 3.698925,-0.0098 z m -10.4372764,-6.2494 c 2.4694724,-0.485791 5.0434053,-0.770616 7.5067374,-0.830676 2.947541,-0.07187 6.149773,0.206167 9.227913,0.801215 0.325205,0.06287 0.607846,0.114303 0.628091,0.114303 0.02944,0 0.03326,-0.139215 0.01906,-0.69534 C 20.887344,9.4895667 20.553011,7.482997 19.942414,5.4767025 19.715946,4.7325729 19.362276,3.7695695 19.11505,3.2238828 L 19.05572,3.0929269 18.588792,2.9448763 C 17.167651,2.4942702 15.557859,2.1958703 13.734767,2.0451078 13.444203,2.0210794 12.80813,2.0071685 12,2.0071685 c -1.294287,0 -1.697386,0.019644 -2.6736548,0.1302937 C 7.9459908,2.2939107 6.5582518,2.5799795 5.411208,2.9445293 L 4.9442801,3.0929269 4.8859447,3.2238828 C 4.7415759,3.5479743 4.4454515,4.3221769 4.2864118,4.7913322 3.53519,7.0073815 3.1202407,9.2694887 3.0627119,11.462366 c -0.015068,0.574373 -0.011556,0.680985 0.022435,0.680887 0.022166,-5.7e-5 0.2338493,-0.03819 0.4704085,-0.08473 z"
     id="path1882" />
  <path
     style="fill:#f0eff3;fill-opacity:1;stroke:#ffffff;stroke-width:0.0860215;stroke-linecap:round;paint-order:markers fill stroke"
     d="m 15.876553,15.911391 c -0.537397,-0.267796 -0.53601,-1.018948 0.0024,-1.291774 0.383475,-0.194321 0.869425,0.0061 1.009151,0.416143 0.206378,0.605687 -0.436495,1.162187 -1.011536,0.875631 z"
     id="path1953" />
  <path
     style="fill:#f0eff3;fill-opacity:1;stroke:#ffffff;stroke-width:0.0860215;stroke-linecap:round;paint-order:markers fill stroke"
     d="M 7.4714665,15.909571 C 7.2405842,15.794518 7.0750289,15.535166 7.0702818,15.281094 c -0.00996,-0.533009 0.5761681,-0.901981 1.0507803,-0.661477 0.5383951,0.272826 0.5397821,1.023978 0.00239,1.291774 -0.2073203,0.103312 -0.4423246,0.102656 -0.6519809,-0.0018 z"
     id="path1955" />
</svg>
